<svg xmlns="http://www.w3.org/2000/svg" xmlns:xlink="http://www.w3.org/1999/xlink" version="1.1" width="2869.9999569852316" height="1800.0000159078284" style="width: 2869.9999569852316px; height: 1800.0000159078284px; background: #111111" viewBox="148.99999699660196 109.99999630938379 2869.9999569852316 1800.0000159078284"><style id="v-3" type="text/css">        .joint-element .scalable * {            vector-effect: non-scaling-stroke;        }    </style><defs joint-selector="defs"><marker id="v-2-527367903" orient="auto" overflow="visible" markerUnits="userSpaceOnUse"><path id="v-269" stroke="#cccccc" fill="#cccccc" transform="rotate(180)" d="M 20 -10 0 0 20 10 Z"></path></marker></defs><g joint-selector="layers"  transform="matrix(1,0,0,1,0,0)"><g  style="pointer-events: none;"></g><g ></g><g  style="user-select: none;"><!--z-index:-13--><!--z-index:-12--><!--z-index:-11--><!--z-index:-10--><!--z-index:-9--><!--z-index:-8--><!--z-index:-7--><!--z-index:-6--><!--z-index:-5--><!--z-index:-4--><!--z-index:-3--><!--z-index:-2--><!--z-index:-1--><!--z-index:0--><!--z-index:1--><!--z-index:2--><!--z-index:3--><!--z-index:4--><!--z-index:5--><!--z-index:6--><!--z-index:7--><!--z-index:8--><!--z-index:9--><!--z-index:10--><!--z-index:11--><!--z-index:12--><!--z-index:13--><!--z-index:14--><!--z-index:15--><!--z-index:16--><!--z-index:17--><!--z-index:18--><!--z-index:19--><!--z-index:20--><!--z-index:21--><g   id="j_430"  transform="translate(20,2056)"><g id="v-4816"><text  id="v-4817" font-size="24px" xml:space="preserve" y="0.8em" font-weight="normal" text-anchor="start" fill="#cccccc" pointer-events="none" display="block" font-family="Tahoma, Verdana, Helvetica, Arial"><tspan dy="0"  display="none">Wednesday, 6 May 2026 at 00:30 India Standard Time</tspan></text></g></g><!--z-index:22--><g   id="j_429"  transform="translate(20,2010)"><g id="v-4814"><text  id="v-4815" font-size="36px" xml:space="preserve" y="0.8em" font-weight="normal" text-anchor="start" fill="#cccccc" pointer-events="none" display="block" font-family="Tahoma, Verdana, Helvetica, Arial"><tspan dy="0"  display="none">System Context View: HSL Homelab Platform</tspan></text></g></g><!--z-index:23--><g   id="j_431"  transform="translate(199,810)" style=""><g  id="v-4821" style="opacity: 1;"><rect  x="0" y="160" width="400" height="240" rx="70" id="v-4823" stroke-width="2" pointer-events="visiblePainted" fill="#0b6e4f" stroke="#0a6347" stroke-dasharray="" style="fill: rgb(11, 110, 79); stroke: rgb(10, 99, 71);"></rect><circle  cx="200" cy="88.88888888888889" r="88.88888888888889" id="v-4822" stroke-width="2" pointer-events="visiblePainted" fill="#0b6e4f" stroke="#0a6347" stroke-dasharray="" style="fill: rgb(11, 110, 79); stroke: rgb(10, 99, 71);"></circle><line  x1="80" y1="266.6666666666667" x2="80" y2="400" id="v-4829" stroke="#0a6347" stroke-width="1" stroke-dasharray="" style="stroke: rgb(10, 99, 71);"></line><line  x1="320" y1="266.6666666666667" x2="320" y2="400" id="v-4830" stroke="#0a6347" stroke-width="1" stroke-dasharray="" style="stroke: rgb(10, 99, 71);"></line><text  id="v-4824" font-size="33.599999999999994px" xml:space="preserve" y="202.5" font-weight="bold" text-anchor="middle" pointer-events="visible" font-family="Tahoma, Verdana, Helvetica, Arial" fill="#ffffff" dominant-baseline="hanging" transform="matrix(1,0,0,1,200,0)" style="fill: rgb(255, 255, 255);"><tspan dy="0" >Administrator</tspan></text><text  id="v-4825" font-size="16.799999999999997px" xml:space="preserve" y="244.1" text-anchor="middle" font-family="Tahoma, Verdana, Helvetica, Arial" fill="#ffffff" dominant-baseline="hanging" transform="matrix(1,0,0,1,200,0)" style="display: block; fill: rgb(255, 255, 255);"><tspan dy="0" >[Person]</tspan></text><text  id="v-4826" font-size="24px" xml:space="preserve" y="275.9" text-anchor="middle" font-family="Tahoma, Verdana, Helvetica, Arial" fill="#ffffff" dominant-baseline="hanging" transform="matrix(1,0,0,1,200,0)" style="display: block; fill: rgb(255, 255, 255);"><tspan dy="0" >Manages Proxmox, Tailscale</tspan><tspan dy="1.2em" x="0" >ACLs, Nginx Proxy Manager,</tspan><tspan dy="1.2em" x="0" >and model deployment.</tspan></text><g  id="v-4827" font-weight="normal" text-anchor="middle" color="#ffffff" transform="matrix(1,0,0,1,197.5,368)" style="fill: rgb(255, 255, 255);" display="none"><g ></g><g ></g><g ></g><g ></g></g><image  id="v-4828"></image></g></g><!--z-index:24--><g   id="j_432"  transform="translate(939,1240)" style=""><g  id="v-4837" style="opacity: 1;"><rect  id="v-4838" rx="1" ry="1" stroke-width="2" pointer-events="visiblePainted" fill="#a1a1aa" stroke="#919199" stroke-dasharray="" width="450" height="300" style="fill: rgb(161, 161, 170); stroke: rgb(145, 145, 153);"></rect><text  id="v-4839" font-size="33.599999999999994px" xml:space="preserve" y="86.9" font-weight="bold" text-anchor="middle" pointer-events="visible" font-family="Tahoma, Verdana, Helvetica, Arial" fill="#111111" dominant-baseline="hanging" transform="matrix(1,0,0,1,225,0)" style="fill: rgb(17, 17, 17);"><tspan dy="0" >Tailscale Control Plane</tspan></text><text  id="v-4840" font-size="16.799999999999997px" xml:space="preserve" y="128.5" text-anchor="middle" font-family="Tahoma, Verdana, Helvetica, Arial" fill="#111111" dominant-baseline="hanging" transform="matrix(1,0,0,1,225,0)" style="display: block; fill: rgb(17, 17, 17);"><tspan dy="0" >[Software System]</tspan></text><text  id="v-4841" font-size="24px" xml:space="preserve" y="160.3" text-anchor="middle" font-family="Tahoma, Verdana, Helvetica, Arial" fill="#111111" dominant-baseline="hanging" transform="matrix(1,0,0,1,225,0)" style="display: block; fill: rgb(17, 17, 17);"><tspan dy="0" >Identity, ACLs, subnet routing, and</tspan><tspan dy="1.2em" x="0" >overlay coordination.</tspan></text><g  id="v-4842" color="#111111" transform="matrix(1,0,0,1,222.5,268)" style="fill: rgb(17, 17, 17);" display="none"><g ></g><g ></g><g ></g><g ></g></g><image  id="v-4843"></image></g></g><!--z-index:25--><g   id="j_433"  transform="translate(2519,160)" style=""><g  id="v-4847" style="opacity: 1;"><rect  id="v-4848" rx="1" ry="1" stroke-width="2" pointer-events="visiblePainted" fill="#a1a1aa" stroke="#919199" stroke-dasharray="" width="450" height="300" style="fill: rgb(161, 161, 170); stroke: rgb(145, 145, 153);"></rect><text  id="v-4849" font-size="33.599999999999994px" xml:space="preserve" y="86.9" font-weight="bold" text-anchor="middle" pointer-events="visible" font-family="Tahoma, Verdana, Helvetica, Arial" fill="#111111" dominant-baseline="hanging" transform="matrix(1,0,0,1,225,0)" style="fill: rgb(17, 17, 17);"><tspan dy="0" >Let's Encrypt</tspan></text><text  id="v-4850" font-size="16.799999999999997px" xml:space="preserve" y="128.5" text-anchor="middle" font-family="Tahoma, Verdana, Helvetica, Arial" fill="#111111" dominant-baseline="hanging" transform="matrix(1,0,0,1,225,0)" style="display: block; fill: rgb(17, 17, 17);"><tspan dy="0" >[Software System]</tspan></text><text  id="v-4851" font-size="24px" xml:space="preserve" y="160.3" text-anchor="middle" font-family="Tahoma, Verdana, Helvetica, Arial" fill="#111111" dominant-baseline="hanging" transform="matrix(1,0,0,1,225,0)" style="display: block; fill: rgb(17, 17, 17);"><tspan dy="0" >Certificate authority used by Nginx</tspan><tspan dy="1.2em" x="0" >Proxy Manager.</tspan></text><g  id="v-4852" color="#111111" transform="matrix(1,0,0,1,222.5,268)" style="fill: rgb(17, 17, 17);" display="none"><g ></g><g ></g><g ></g><g ></g></g><image  id="v-4853"></image></g></g><!--z-index:26--><g   id="j_434"  transform="translate(939,890)" style=""><g  id="v-4857" style="opacity: 1;"><rect  id="v-4858" rx="1" ry="1" stroke-width="2" pointer-events="visiblePainted" fill="#a1a1aa" stroke="#919199" stroke-dasharray="" width="450" height="300" style="fill: rgb(161, 161, 170); stroke: rgb(145, 145, 153);"></rect><text  id="v-4859" font-size="33.599999999999994px" xml:space="preserve" y="86.9" font-weight="bold" text-anchor="middle" pointer-events="visible" font-family="Tahoma, Verdana, Helvetica, Arial" fill="#111111" dominant-baseline="hanging" transform="matrix(1,0,0,1,225,0)" style="fill: rgb(17, 17, 17);"><tspan dy="0" >Public Internet</tspan></text><text  id="v-4860" font-size="16.799999999999997px" xml:space="preserve" y="128.5" text-anchor="middle" font-family="Tahoma, Verdana, Helvetica, Arial" fill="#111111" dominant-baseline="hanging" transform="matrix(1,0,0,1,225,0)" style="display: block; fill: rgb(17, 17, 17);"><tspan dy="0" >[Software System]</tspan></text><text  id="v-4861" font-size="24px" xml:space="preserve" y="160.3" text-anchor="middle" font-family="Tahoma, Verdana, Helvetica, Arial" fill="#111111" dominant-baseline="hanging" transform="matrix(1,0,0,1,225,0)" style="display: block; fill: rgb(17, 17, 17);"><tspan dy="0" >External clients, browsers, and</tspan><tspan dy="1.2em" x="0" >remote overlay peers.</tspan></text><g  id="v-4862" color="#111111" transform="matrix(1,0,0,1,222.5,268)" style="fill: rgb(17, 17, 17);" display="none"><g ></g><g ></g><g ></g><g ></g></g><image  id="v-4863"></image></g></g><!--z-index:27--><g   id="j_435"  transform="translate(2519,510)" style=""><g  id="v-4870" style="opacity: 1;"><rect  id="v-4871" rx="1" ry="1" stroke-width="2" pointer-events="visiblePainted" fill="#a1a1aa" stroke="#919199" stroke-dasharray="" width="450" height="300" style="fill: rgb(161, 161, 170); stroke: rgb(145, 145, 153);"></rect><text  id="v-4872" font-size="33.599999999999994px" xml:space="preserve" y="86.9" font-weight="bold" text-anchor="middle" pointer-events="visible" font-family="Tahoma, Verdana, Helvetica, Arial" fill="#111111" dominant-baseline="hanging" transform="matrix(1,0,0,1,225,0)" style="fill: rgb(17, 17, 17);"><tspan dy="0" >Hugging Face Hub</tspan></text><text  id="v-4873" font-size="16.799999999999997px" xml:space="preserve" y="128.5" text-anchor="middle" font-family="Tahoma, Verdana, Helvetica, Arial" fill="#111111" dominant-baseline="hanging" transform="matrix(1,0,0,1,225,0)" style="display: block; fill: rgb(17, 17, 17);"><tspan dy="0" >[Software System]</tspan></text><text  id="v-4874" font-size="24px" xml:space="preserve" y="160.3" text-anchor="middle" font-family="Tahoma, Verdana, Helvetica, Arial" fill="#111111" dominant-baseline="hanging" transform="matrix(1,0,0,1,225,0)" style="display: block; fill: rgb(17, 17, 17);"><tspan dy="0" >Source for public datasets mirrored</tspan><tspan dy="1.2em" x="0" >into Site A raw storage.</tspan></text><g  id="v-4875" color="#111111" transform="matrix(1,0,0,1,222.5,268)" style="fill: rgb(17, 17, 17);" display="none"><g ></g><g ></g><g ></g><g ></g></g><image  id="v-4876"></image></g></g><!--z-index:28--><g   id="j_436"  transform="translate(2519,860)" style=""><g  id="v-4883" style="opacity: 1;"><rect  id="v-4884" rx="1" ry="1" stroke-width="2" pointer-events="visiblePainted" fill="#a1a1aa" stroke="#919199" stroke-dasharray="" width="450" height="300" style="fill: rgb(161, 161, 170); stroke: rgb(145, 145, 153);"></rect><text  id="v-4885" font-size="33.599999999999994px" xml:space="preserve" y="86.9" font-weight="bold" text-anchor="middle" pointer-events="visible" font-family="Tahoma, Verdana, Helvetica, Arial" fill="#111111" dominant-baseline="hanging" transform="matrix(1,0,0,1,225,0)" style="fill: rgb(17, 17, 17);"><tspan dy="0" >S3-Compatible Sources</tspan></text><text  id="v-4886" font-size="16.799999999999997px" xml:space="preserve" y="128.5" text-anchor="middle" font-family="Tahoma, Verdana, Helvetica, Arial" fill="#111111" dominant-baseline="hanging" transform="matrix(1,0,0,1,225,0)" style="display: block; fill: rgb(17, 17, 17);"><tspan dy="0" >[Software System]</tspan></text><text  id="v-4887" font-size="24px" xml:space="preserve" y="160.3" text-anchor="middle" font-family="Tahoma, Verdana, Helvetica, Arial" fill="#111111" dominant-baseline="hanging" transform="matrix(1,0,0,1,225,0)" style="display: block; fill: rgb(17, 17, 17);"><tspan dy="0" >Public datasets mirrored into raw</tspan><tspan dy="1.2em" x="0" >storage.</tspan></text><g  id="v-4888" color="#111111" transform="matrix(1,0,0,1,222.5,268)" style="fill: rgb(17, 17, 17);" display="none"><g ></g><g ></g><g ></g><g ></g></g><image  id="v-4889"></image></g></g><!--z-index:29--><g   id="j_437"  transform="translate(2519,1210)" style=""><g  id="v-4896" style="opacity: 1;"><rect  id="v-4897" rx="1" ry="1" stroke-width="2" pointer-events="visiblePainted" fill="#a1a1aa" stroke="#919199" stroke-dasharray="" width="450" height="300" style="fill: rgb(161, 161, 170); stroke: rgb(145, 145, 153);"></rect><text  id="v-4898" font-size="33.599999999999994px" xml:space="preserve" y="72.5" font-weight="bold" text-anchor="middle" pointer-events="visible" font-family="Tahoma, Verdana, Helvetica, Arial" fill="#111111" dominant-baseline="hanging" transform="matrix(1,0,0,1,225,0)" style="fill: rgb(17, 17, 17);"><tspan dy="0" >Git Repositories</tspan></text><text  id="v-4899" font-size="16.799999999999997px" xml:space="preserve" y="114.1" text-anchor="middle" font-family="Tahoma, Verdana, Helvetica, Arial" fill="#111111" dominant-baseline="hanging" transform="matrix(1,0,0,1,225,0)" style="display: block; fill: rgb(17, 17, 17);"><tspan dy="0" >[Software System]</tspan></text><text  id="v-4900" font-size="24px" xml:space="preserve" y="145.89999999999998" text-anchor="middle" font-family="Tahoma, Verdana, Helvetica, Arial" fill="#111111" dominant-baseline="hanging" transform="matrix(1,0,0,1,225,0)" style="display: block; fill: rgb(17, 17, 17);"><tspan dy="0" >Source repositories mirrored or</tspan><tspan dy="1.2em" x="0" >committed by the documentation</tspan><tspan dy="1.2em" x="0" >pipeline.</tspan></text><g  id="v-4901" color="#111111" transform="matrix(1,0,0,1,222.5,268)" style="fill: rgb(17, 17, 17);" display="none"><g ></g><g ></g><g ></g><g ></g></g><image  id="v-4902"></image></g></g><!--z-index:30--><g   id="j_438"  transform="translate(2519,1560)" style=""><g  id="v-4909" style="opacity: 1;"><rect  id="v-4910" rx="1" ry="1" stroke-width="2" pointer-events="visiblePainted" fill="#a1a1aa" stroke="#919199" stroke-dasharray="" width="450" height="300" style="fill: rgb(161, 161, 170); stroke: rgb(145, 145, 153);"></rect><text  id="v-4911" font-size="33.599999999999994px" xml:space="preserve" y="86.9" font-weight="bold" text-anchor="middle" pointer-events="visible" font-family="Tahoma, Verdana, Helvetica, Arial" fill="#111111" dominant-baseline="hanging" transform="matrix(1,0,0,1,225,0)" style="fill: rgb(17, 17, 17);"><tspan dy="0" >Prometheus Pushgateway</tspan></text><text  id="v-4912" font-size="16.799999999999997px" xml:space="preserve" y="128.5" text-anchor="middle" font-family="Tahoma, Verdana, Helvetica, Arial" fill="#111111" dominant-baseline="hanging" transform="matrix(1,0,0,1,225,0)" style="display: block; fill: rgb(17, 17, 17);"><tspan dy="0" >[Software System]</tspan></text><text  id="v-4913" font-size="24px" xml:space="preserve" y="160.3" text-anchor="middle" font-family="Tahoma, Verdana, Helvetica, Arial" fill="#111111" dominant-baseline="hanging" transform="matrix(1,0,0,1,225,0)" style="display: block; fill: rgb(17, 17, 17);"><tspan dy="0" >Metrics ingestion endpoint for the</tspan><tspan dy="1.2em" x="0" >repo documentation pipeline.</tspan></text><g  id="v-4914" color="#111111" transform="matrix(1,0,0,1,222.5,268)" style="fill: rgb(17, 17, 17);" display="none"><g ></g><g ></g><g ></g><g ></g></g><image  id="v-4915"></image></g></g><!--z-index:31--><g   id="j_439"  transform="translate(1729,860)" style=""><g  id="v-4922" style="opacity: 1;"><rect  id="v-4923" rx="1" ry="1" stroke-width="2" pointer-events="visiblePainted" fill="#0f4c81" stroke="#0e4474" stroke-dasharray="" width="450" height="300" style="fill: rgb(15, 76, 129); stroke: rgb(14, 68, 116);"></rect><text  id="v-4924" font-size="33.599999999999994px" xml:space="preserve" y="58.10000000000001" font-weight="bold" text-anchor="middle" pointer-events="visible" font-family="Tahoma, Verdana, Helvetica, Arial" fill="#ffffff" dominant-baseline="hanging" transform="matrix(1,0,0,1,225,0)" style="fill: rgb(255, 255, 255);"><tspan dy="0" >HSL Homelab Platform</tspan></text><text  id="v-4925" font-size="16.799999999999997px" xml:space="preserve" y="99.7" text-anchor="middle" font-family="Tahoma, Verdana, Helvetica, Arial" fill="#ffffff" dominant-baseline="hanging" transform="matrix(1,0,0,1,225,0)" style="display: block; fill: rgb(255, 255, 255);"><tspan dy="0" >[Software System]</tspan></text><text  id="v-4926" font-size="24px" xml:space="preserve" y="131.5" text-anchor="middle" font-family="Tahoma, Verdana, Helvetica, Arial" fill="#ffffff" dominant-baseline="hanging" transform="matrix(1,0,0,1,225,0)" style="display: block; fill: rgb(255, 255, 255);"><tspan dy="0" >Two-site active-active infrastructure</tspan><tspan dy="1.2em" x="0" >spanning Proxmox storage, Apple</tspan><tspan dy="1.2em" x="0" >Silicon inference, and OCI edge</tspan><tspan dy="1.2em" x="0" >ingress.</tspan></text><g  id="v-4927" color="#ffffff" transform="matrix(1,0,0,1,210,268)" style="fill: rgb(255, 255, 255);" display="none"><g  transform="translate(5 0)"><svg xmlns="http://www.w3.org/2000/svg" width="20" height="20" fill="currentColor" viewBox="0 0 16 16"><path fill-rule="evenodd" d="M6.5 12a5.5 5.5 0 1 0 0-11 5.5 5.5 0 0 0 0 11zM13 6.5a6.5 6.5 0 1 1-13 0 6.5 6.5 0 0 1 13 0z"></path><path d="M10.344 11.742c.03.04.062.078.098.115l3.85 3.85a1 1 0 0 0 1.415-1.414l-3.85-3.85a1.007 1.007 0 0 0-.115-.1 6.538 6.538 0 0 1-1.398 1.4z"></path><path fill-rule="evenodd" d="M6.5 3a.5.5 0 0 1 .5.5V6h2.5a.5.5 0 0 1 0 1H7v2.5a.5.5 0 0 1-1 0V7H3.5a.5.5 0 0 1 0-1H6V3.5a.5.5 0 0 1 .5-.5z"></path></svg></g><g ></g><g ></g><g ></g></g><image  id="v-4928"></image></g></g><!--z-index:32--><g   id="j_440"  style="opacity: 1;"><path fill="none" cursor="pointer" stroke="transparent" stroke-linecap="round" joint-selector="wrapper" id="v-4940" stroke-width="10" stroke-linejoin="round" d="M 593.56 1210 L 762 1383 C 766.6666666666666 1387.8999999999999 772.3333333333333 1390.2333333333331 779 1390 L 939 1390.2"></path><path fill="none" pointer-events="none" joint-selector="line" id="v-4939" stroke="#cccccc" stroke-width="2" stroke-linejoin="round" stroke-dasharray="8 8" d="M 593.56 1210 L 762 1383 C 766.6666666666666 1387.8999999999999 772.3333333333333 1390.2333333333331 779 1390 L 939 1390.2" marker-end="url(#v-2-527367903)"></path><g id="v-4932" ><g id="v-4933"  label-idx="0" cursor="move" transform="matrix(1,0,0,1,769.6836547851562,1388.3975830078125)" style="cursor: default;"><rect joint-selector="rect" id="v-4936" fill="#111111" rx="3" ry="3" x="-92.49990844726562" y="-44.40575408935547" width="184.57904052734375" height="88.00768280029297" pointer-events="none"  style="display: block;"></rect><text joint-selector="text" id="v-4935" font-size="24px" xml:space="preserve" fill="#cccccc" text-anchor="middle" pointer-events="none" font-family="Tahoma, Verdana, Helvetica, Arial" font-weight="normal"  style="display: block;"><tspan dy="-0.8999999999999999em" >Manages ACLs,</tspan><tspan dy="1.2em" x="0" >tags, and subnet</tspan><tspan dy="1.2em" x="0" >routing</tspan></text></g><g id="v-4934"  label-idx="1" cursor="move" transform="matrix(1,0,0,1,759.6836547851562,1429.197509765625)" style="cursor: default;"><rect joint-selector="rect" id="v-4938" fill="#ffffff" rx="3" ry="3" x="1.1368683772161603e-13" y="0" width="0" height="0"  display="none"></rect><text joint-selector="text" id="v-4937" fill="#000000" font-size="14" text-anchor="middle" text-vertical-anchor="middle" pointer-events="none"></text></g></g></g><!--z-index:33--><g   id="j_441"  style="opacity: 1;"><path fill="none" cursor="pointer" stroke="transparent" stroke-linecap="round" joint-selector="wrapper" id="v-4952" stroke-width="10" stroke-linejoin="round" d="M 599 888.46 L 760 790 C 766 786.7666666666667 772.3333333333333 785.0999999999999 779 785 L 1549 785 C 1555.6666666666665 785.0999999999999 1562 786.7666666666667 1568 790 L 1729 881.92" style="stroke-width: 10px;"></path><path fill="none" pointer-events="none" joint-selector="line" id="v-4951" stroke="#cccccc" stroke-width="2" stroke-linejoin="round" stroke-dasharray="8 8" d="M 599 888.46 L 760 790 C 766 786.7666666666667 772.3333333333333 785.0999999999999 779 785 L 1549 785 C 1555.6666666666665 785.0999999999999 1562 786.7666666666667 1568 790 L 1729 881.92" marker-end="url(#v-2-527367903)"></path><g id="v-4944" ><g id="v-4945"  label-idx="0" cursor="move" transform="matrix(1,0,0,1,1163.9927978515625,785)" style="cursor: default;"><rect joint-selector="rect" id="v-4948" fill="#111111" rx="3" ry="3" x="-92.55929565429688" y="-58.805755615234375" width="187.67062377929688" height="113.0067138671875" pointer-events="none"  style="display: block;"></rect><text joint-selector="text" id="v-4947" font-size="24px" xml:space="preserve" fill="#cccccc" text-anchor="middle" pointer-events="none" font-family="Tahoma, Verdana, Helvetica, Arial" font-weight="normal"  style="display: block;"><tspan dy="-1.4999999999999998em" >Maintains reverse</tspan><tspan dy="1.2em" x="0" >proxy, TLS, and</tspan><tspan dy="1.2em" x="0" >public ingress</tspan><tspan dy="1.2em" x="0" >rules</tspan></text></g><g id="v-4946"  label-idx="1" cursor="move" transform="matrix(1,0,0,1,1153.9927978515625,840.2000122070312)" style="cursor: default;"><rect joint-selector="rect" id="v-4950" fill="#ffffff" rx="3" ry="3" x="0" y="0" width="0" height="0"  display="none"></rect><text joint-selector="text" id="v-4949" fill="#000000" font-size="14" text-anchor="middle" text-vertical-anchor="middle" pointer-events="none"></text></g></g></g><!--z-index:34--><g   id="j_442"  style="opacity: 1;"><path fill="none" cursor="pointer" stroke="transparent" stroke-linecap="round" joint-selector="wrapper" id="v-4964" stroke-width="10" stroke-linejoin="round" d="M 1389 1040.2 L 1549 1040 C 1555.6666666666665 1040.2333333333331 1562.3333333333333 1040.2333333333331 1569 1040 L 1729 1027.29" style="stroke-width: 10px;"></path><path fill="none" pointer-events="none" joint-selector="line" id="v-4963" stroke="#cccccc" stroke-width="2" stroke-linejoin="round" stroke-dasharray="8 8" d="M 1389 1040.2 L 1549 1040 C 1555.6666666666665 1040.2333333333331 1562.3333333333333 1040.2333333333331 1569 1040 L 1729 1027.29" marker-end="url(#v-2-527367903)"></path><g id="v-4956" ><g id="v-4957"  label-idx="0" cursor="move" transform="matrix(1,0,0,1,1559,1040.175048828125)" style="cursor: default;"><rect joint-selector="rect" id="v-4960" fill="#111111" rx="3" ry="3" x="-84.00714111328125" y="-30.005756378173828" width="170.0692138671875" height="59.20767593383789" pointer-events="none"  style="display: block;"></rect><text joint-selector="text" id="v-4959" font-size="24px" xml:space="preserve" fill="#cccccc" text-anchor="middle" pointer-events="none" font-family="Tahoma, Verdana, Helvetica, Arial" font-weight="normal"  style="display: block;"><tspan dy="-0.3em" >HTTPS / 80-443</tspan><tspan dy="1.2em" x="0" >ingress</tspan></text></g><g id="v-4958"  label-idx="1" cursor="move" transform="matrix(1,0,0,1,1549,1066.574951171875)" style="cursor: default;"><rect joint-selector="rect" id="v-4962" fill="#ffffff" rx="3" ry="3" x="-2.2737367544323206e-13" y="0" width="0" height="0"  display="none"></rect><text joint-selector="text" id="v-4961" fill="#000000" font-size="14" text-anchor="middle" text-vertical-anchor="middle" pointer-events="none"></text></g></g></g><!--z-index:35--><g   id="j_443"  style="opacity: 1;"><path fill="none" cursor="pointer" stroke="transparent" stroke-linecap="round" joint-selector="wrapper" id="v-4976" stroke-width="10" stroke-linejoin="round" d="M 2038.64 860 L 2344 319 C 2347.333333333333 313 2352.333333333333 310 2359 310 L 2519 310" style="stroke-width: 10px;"></path><path fill="none" pointer-events="none" joint-selector="line" id="v-4975" stroke="#cccccc" stroke-width="2" stroke-linejoin="round" stroke-dasharray="8 8" d="M 2038.64 860 L 2344 319 C 2347.333333333333 313 2352.333333333333 310 2359 310 L 2519 310" marker-end="url(#v-2-527367903)"></path><g id="v-4968" ><g id="v-4969"  label-idx="0" cursor="move" transform="matrix(1,0,0,1,2349.843505859375,312.5028076171875)" style="cursor: default;"><rect joint-selector="rect" id="v-4972" fill="#111111" rx="3" ry="3" x="-67.37794494628906" y="-44.40575408935547" width="132.85853576660156" height="84.20671844482422" pointer-events="none"  style="display: block;"></rect><text joint-selector="text" id="v-4971" font-size="24px" xml:space="preserve" fill="#cccccc" text-anchor="middle" pointer-events="none" font-family="Tahoma, Verdana, Helvetica, Arial" font-weight="normal"  style="display: block;"><tspan dy="-0.8999999999999999em" >Obtains and</tspan><tspan dy="1.2em" x="0" >renews TLS</tspan><tspan dy="1.2em" x="0" >certificates</tspan></text></g><g id="v-4970"  label-idx="1" cursor="move" transform="matrix(1,0,0,1,2339.843505859375,353.3028259277344)" style="cursor: default;"><rect joint-selector="rect" id="v-4974" fill="#ffffff" rx="3" ry="3" x="2.2737367544323206e-13" y="0" width="0" height="0"  display="none"></rect><text joint-selector="text" id="v-4973" fill="#000000" font-size="14" text-anchor="middle" text-vertical-anchor="middle" pointer-events="none"></text></g></g></g><!--z-index:36--><g   id="j_444"  style="opacity: 1;"><path fill="none" cursor="pointer" stroke="transparent" stroke-linecap="round" joint-selector="wrapper" id="v-4988" stroke-width="10" stroke-linejoin="round" d="M 1841.43 1160 L 1565 1528 C 1561 1533.5666666666664 1556 1535.2333333333331 1550 1533 L 1389 1473.36" style="stroke-width: 10px;"></path><path fill="none" pointer-events="none" joint-selector="line" id="v-4987" stroke="#cccccc" stroke-width="2" stroke-linejoin="round" stroke-dasharray="8 8" d="M 1841.43 1160 L 1565 1528 C 1561 1533.5666666666664 1556 1535.2333333333331 1550 1533 L 1389 1473.36" marker-end="url(#v-2-527367903)"></path><g id="v-4980" ><g id="v-4981"  label-idx="0" cursor="move" transform="matrix(1,0,0,1,1558.62890625,1533.29052734375)" style="cursor: default;"><rect joint-selector="rect" id="v-4984" fill="#111111" rx="3" ry="3" x="-90.36186981201172" y="-58.805755615234375" width="181.38706970214844" height="116.80767822265625" pointer-events="none"  style="display: block;"></rect><text joint-selector="text" id="v-4983" font-size="24px" xml:space="preserve" fill="#cccccc" text-anchor="middle" pointer-events="none" font-family="Tahoma, Verdana, Helvetica, Arial" font-weight="normal"  style="display: block;"><tspan dy="-1.4999999999999998em" >Uses overlay</tspan><tspan dy="1.2em" x="0" >routing and ACLs</tspan><tspan dy="1.2em" x="0" >for private</tspan><tspan dy="1.2em" x="0" >upstreams</tspan></text></g><g id="v-4982"  label-idx="1" cursor="move" transform="matrix(1,0,0,1,1548.62890625,1588.490478515625)" style="cursor: default;"><rect joint-selector="rect" id="v-4986" fill="#ffffff" rx="3" ry="3" x="-2.2737367544323206e-13" y="0" width="0" height="0"  display="none"></rect><text joint-selector="text" id="v-4985" fill="#000000" font-size="14" text-anchor="middle" text-vertical-anchor="middle" pointer-events="none"></text></g></g></g><!--z-index:37--><g   id="j_445"  style="opacity: 1;"><path fill="none" cursor="pointer" stroke="transparent" stroke-linecap="round" joint-selector="wrapper" id="v-5000" stroke-width="10" stroke-linejoin="round" d="M 1389 1390.2 L 1549 1390 C 1555.6666666666665 1390.2333333333331 1561.3333333333333 1387.8999999999999 1566 1383 L 1798.22 1160" style="stroke-width: 10px;"></path><path fill="none" pointer-events="none" joint-selector="line" id="v-4999" stroke="#cccccc" stroke-width="2" stroke-linejoin="round" stroke-dasharray="8 8" d="M 1389 1390.2 L 1549 1390 C 1555.6666666666665 1390.2333333333331 1561.3333333333333 1387.8999999999999 1566 1383 L 1798.22 1160" marker-end="url(#v-2-527367903)"></path><g id="v-4992" ><g id="v-4993"  label-idx="0" cursor="move" transform="matrix(1,0,0,1,1558.382568359375,1388.369873046875)" style="cursor: default;"><rect joint-selector="rect" id="v-4996" fill="#111111" rx="3" ry="3" x="-93.09381103515625" y="-44.40575408935547" width="187.98683166503906" height="84.20671844482422" pointer-events="none"  style="display: block;"></rect><text joint-selector="text" id="v-4995" font-size="24px" xml:space="preserve" fill="#cccccc" text-anchor="middle" pointer-events="none" font-family="Tahoma, Verdana, Helvetica, Arial" font-weight="normal"  style="display: block;"><tspan dy="-0.8999999999999999em" >Uses overlay DNS</tspan><tspan dy="1.2em" x="0" >for remote name</tspan><tspan dy="1.2em" x="0" >resolution</tspan></text></g><g id="v-4994"  label-idx="1" cursor="move" transform="matrix(1,0,0,1,1548.382568359375,1429.1697998046875)" style="cursor: default;"><rect joint-selector="rect" id="v-4998" fill="#ffffff" rx="3" ry="3" x="0" y="0" width="0" height="0"  display="none"></rect><text joint-selector="text" id="v-4997" fill="#000000" font-size="14" text-anchor="middle" text-vertical-anchor="middle" pointer-events="none"></text></g></g></g><!--z-index:38--><g   id="j_446"  style="opacity: 1;"><path fill="none" cursor="pointer" stroke="transparent" stroke-linecap="round" joint-selector="wrapper" id="v-5012" stroke-width="10" stroke-linejoin="round" d="M 2123.29 860 L 2342 667 C 2346.6666666666665 662.3333333333333 2352.333333333333 660 2359 660 L 2519 660" style="stroke-width: 10px;"></path><path fill="none" pointer-events="none" joint-selector="line" id="v-5011" stroke="#cccccc" stroke-width="2" stroke-linejoin="round" stroke-dasharray="8 8" d="M 2123.29 860 L 2342 667 C 2346.6666666666665 662.3333333333333 2352.333333333333 660 2359 660 L 2519 660" marker-end="url(#v-2-527367903)"></path><g id="v-5004" ><g id="v-5005"  label-idx="0" cursor="move" transform="matrix(1,0,0,1,2349.584228515625,661.8190307617188)" style="cursor: default;"><rect joint-selector="rect" id="v-5008" fill="#111111" rx="3" ry="3" x="-96.86507415771484" y="-44.40575408935547" width="195.64593505859375" height="88.00768280029297" pointer-events="none"  style="display: block;"></rect><text joint-selector="text" id="v-5007" font-size="24px" xml:space="preserve" fill="#cccccc" text-anchor="middle" pointer-events="none" font-family="Tahoma, Verdana, Helvetica, Arial" font-weight="normal"  style="display: block;"><tspan dy="-0.8999999999999999em" >Mirrors public</tspan><tspan dy="1.2em" x="0" >datasets from</tspan><tspan dy="1.2em" x="0" >Hugging Face Hub</tspan></text></g><g id="v-5006"  label-idx="1" cursor="move" transform="matrix(1,0,0,1,2339.584228515625,702.6190185546875)" style="cursor: default;"><rect joint-selector="rect" id="v-5010" fill="#ffffff" rx="3" ry="3" x="0" y="0" width="0" height="0"  display="none"></rect><text joint-selector="text" id="v-5009" fill="#000000" font-size="14" text-anchor="middle" text-vertical-anchor="middle" pointer-events="none"></text></g></g></g><!--z-index:39--><g   id="j_447"  style="opacity: 1;"><path fill="none" cursor="pointer" stroke="transparent" stroke-linecap="round" joint-selector="wrapper" id="v-5024" stroke-width="10" stroke-linejoin="round" d="M 2179 1010 L 2519 1010" style="stroke-width: 10px;"></path><path fill="none" pointer-events="none" joint-selector="line" id="v-5023" stroke="#cccccc" stroke-width="2" stroke-linejoin="round" stroke-dasharray="8 8" d="M 2179 1010 L 2519 1010" marker-end="url(#v-2-527367903)"></path><g id="v-5016" ><g id="v-5017"  label-idx="0" cursor="move" transform="matrix(1,0,0,1,2349,1010)" style="cursor: default;"><rect joint-selector="rect" id="v-5020" fill="#111111" rx="3" ry="3" x="-78.82133483886719" y="-58.82609176635742" width="156.41270446777344" height="113.03044891357422" pointer-events="none"  style="display: block;"></rect><text joint-selector="text" id="v-5019" font-size="24px" xml:space="preserve" fill="#cccccc" text-anchor="middle" pointer-events="none" font-family="Tahoma, Verdana, Helvetica, Arial" font-weight="normal"  style="display: block;"><tspan dy="-1.4999999999999998em" >Mirrors public</tspan><tspan dy="1.2em" x="0" >datasets from</tspan><tspan dy="1.2em" x="0" >S3-compatible</tspan><tspan dy="1.2em" x="0" >sources</tspan></text></g><g id="v-5018"  label-idx="1" cursor="move" transform="matrix(1,0,0,1,2339,1065.199951171875)" style="cursor: default;"><rect joint-selector="rect" id="v-5022" fill="#ffffff" rx="3" ry="3" x="0" y="0" width="0" height="0"  display="none"></rect><text joint-selector="text" id="v-5021" fill="#000000" font-size="14" text-anchor="middle" text-vertical-anchor="middle" pointer-events="none"></text></g></g></g><!--z-index:40--><g   id="j_448"  style="opacity: 1;"><path fill="none" cursor="pointer" stroke="transparent" stroke-linecap="round" joint-selector="wrapper" id="v-5036" stroke-width="10" stroke-linejoin="round" d="M 2123.29 1160 L 2342 1353 C 2346.6666666666665 1357.6666666666665 2352.333333333333 1360 2359 1360 L 2519 1360" style="stroke-width: 10px;"></path><path fill="none" pointer-events="none" joint-selector="line" id="v-5035" stroke="#cccccc" stroke-width="2" stroke-linejoin="round" stroke-dasharray="8 8" d="M 2123.29 1160 L 2342 1353 C 2346.6666666666665 1357.6666666666665 2352.333333333333 1360 2359 1360 L 2519 1360" marker-end="url(#v-2-527367903)"></path><g id="v-5028" ><g id="v-5029"  label-idx="0" cursor="move" transform="matrix(1,0,0,1,2349.584228515625,1358.1810302734375)" style="cursor: default;"><rect joint-selector="rect" id="v-5032" fill="#111111" rx="3" ry="3" x="-82.4926986694336" y="-73.20574951171875" width="164.59640502929688" height="141.8067169189453" pointer-events="none"  style="display: block;"></rect><text joint-selector="text" id="v-5031" font-size="24px" xml:space="preserve" fill="#cccccc" text-anchor="middle" pointer-events="none" font-family="Tahoma, Verdana, Helvetica, Arial" font-weight="normal"  style="display: block;"><tspan dy="-2.1em" >Consumes or</tspan><tspan dy="1.2em" x="0" >mirrors source</tspan><tspan dy="1.2em" x="0" >repositories for</tspan><tspan dy="1.2em" x="0" >documentation</tspan><tspan dy="1.2em" x="0" >workflows</tspan></text></g><g id="v-5030"  label-idx="1" cursor="move" transform="matrix(1,0,0,1,2339.584228515625,1427.781005859375)" style="cursor: default;"><rect joint-selector="rect" id="v-5034" fill="#ffffff" rx="3" ry="3" x="0" y="0" width="0" height="0"  display="none"></rect><text joint-selector="text" id="v-5033" fill="#000000" font-size="14" text-anchor="middle" text-vertical-anchor="middle" pointer-events="none"></text></g></g></g><!--z-index:41--><g   id="j_449"  style="opacity: 1;"><path fill="none" cursor="pointer" stroke="transparent" stroke-linecap="round" joint-selector="wrapper" id="v-5048" stroke-width="10" stroke-linejoin="round" d="M 2038.64 1160 L 2344 1701 C 2347.333333333333 1707 2352.333333333333 1710 2359 1710 L 2519 1710" style="stroke-width: 10px;"></path><path fill="none" pointer-events="none" joint-selector="line" id="v-5047" stroke="#cccccc" stroke-width="2" stroke-linejoin="round" stroke-dasharray="8 8" d="M 2038.64 1160 L 2344 1701 C 2347.333333333333 1707 2352.333333333333 1710 2359 1710 L 2519 1710" marker-end="url(#v-2-527367903)"></path><g id="v-5040" ><g id="v-5041"  label-idx="0" cursor="move" transform="matrix(1,0,0,1,2349.843505859375,1707.4971923828125)" style="cursor: default;"><rect joint-selector="rect" id="v-5044" fill="#111111" rx="3" ry="3" x="-99.38914489746094" y="-58.805755615234375" width="196.76507568359375" height="113.0067138671875" pointer-events="none"  style="display: block;"></rect><text joint-selector="text" id="v-5043" font-size="24px" xml:space="preserve" fill="#cccccc" text-anchor="middle" pointer-events="none" font-family="Tahoma, Verdana, Helvetica, Arial" font-weight="normal"  style="display: block;"><tspan dy="-1.4999999999999998em" >Pushes</tspan><tspan dy="1.2em" x="0" >throughput, token</tspan><tspan dy="1.2em" x="0" >usage, and lint</tspan><tspan dy="1.2em" x="0" >results</tspan></text></g><g id="v-5042"  label-idx="1" cursor="move" transform="matrix(1,0,0,1,2339.843505859375,1762.6971435546875)" style="cursor: default;"><rect joint-selector="rect" id="v-5046" fill="#ffffff" rx="3" ry="3" x="2.2737367544323206e-13" y="0" width="0" height="0"  display="none"></rect><text joint-selector="text" id="v-5045" fill="#000000" font-size="14" text-anchor="middle" text-vertical-anchor="middle" pointer-events="none"></text></g></g></g><!--z-index:42--><!--z-index:43--><!--z-index:44--><!--z-index:45--><!--z-index:46--><!--z-index:47--><!--z-index:48--><!--z-index:49--><!--z-index:50--><!--z-index:51--><!--z-index:52--><!--z-index:53--><!--z-index:54--><!--z-index:55--><!--z-index:56--><!--z-index:57--><!--z-index:58--><!--z-index:59--><!--z-index:60--><!--z-index:61--><!--z-index:62--><!--z-index:63--><!--z-index:64--><!--z-index:65--><!--z-index:66--><!--z-index:67--><!--z-index:68--><!--z-index:69--><!--z-index:70--><!--z-index:71--><!--z-index:72--><!--z-index:73--><!--z-index:74--><!--z-index:75--><!--z-index:76--><!--z-index:77--><!--z-index:78--><!--z-index:79--><!--z-index:80--><!--z-index:81--><!--z-index:82--><!--z-index:83--><!--z-index:84--><!--z-index:85--><!--z-index:86--><!--z-index:87--><!--z-index:88--></g><g  style="user-select: none;"></g><g ></g><g  display="none"></g></g></svg>